<?xml version="1.0" encoding="UTF-8" standalone="no"?>
<!-- Created with Inkscape (http://www.inkscape.org/) -->

<svg
   xmlns:dc="http://purl.org/dc/elements/1.1/"
   xmlns:cc="http://creativecommons.org/ns#"
   xmlns:rdf="http://www.w3.org/1999/02/22-rdf-syntax-ns#"
   xmlns:svg="http://www.w3.org/2000/svg"
   xmlns="http://www.w3.org/2000/svg"
   xmlns:sodipodi="http://sodipodi.sourceforge.net/DTD/sodipodi-0.dtd"
   xmlns:inkscape="http://www.inkscape.org/namespaces/inkscape"
   width="339.7002"
   height="441.78268"
   id="svg2"
   version="1.1"
   inkscape:version="0.48.4 r9939"
   sodipodi:docname="wrench.svg">
  <defs
     id="defs4">
    <inkscape:path-effect
       effect="spiro"
       id="path-effect3791"
       is_visible="true" />
    <inkscape:path-effect
       effect="spiro"
       id="path-effect3787"
       is_visible="true" />
    <inkscape:path-effect
       effect="spiro"
       id="path-effect3783"
       is_visible="true" />
    <inkscape:path-effect
       effect="spiro"
       id="path-effect2987"
       is_visible="true" />
    <inkscape:path-effect
       effect="spiro"
       id="path-effect3791-1"
       is_visible="true" />
  </defs>
  <sodipodi:namedview
     id="base"
     pagecolor="#ffffff"
     bordercolor="#666666"
     borderopacity="1.0"
     inkscape:pageopacity="0.0"
     inkscape:pageshadow="2"
     inkscape:zoom="0.98994949"
     inkscape:cx="-57.916025"
     inkscape:cy="263.14997"
     inkscape:document-units="px"
     inkscape:current-layer="layer1"
     showgrid="false"
     fit-margin-top="0"
     fit-margin-left="0"
     fit-margin-right="0"
     fit-margin-bottom="0"
     inkscape:window-width="1920"
     inkscape:window-height="1151"
     inkscape:window-x="0"
     inkscape:window-y="25"
     inkscape:window-maximized="1" />
  <metadata
     id="metadata7">
    <rdf:RDF>
      <cc:Work
         rdf:about="">
        <dc:format>image/svg+xml</dc:format>
        <dc:type
           rdf:resource="http://purl.org/dc/dcmitype/StillImage" />
        <dc:title></dc:title>
      </cc:Work>
    </rdf:RDF>
  </metadata>
  <g
     inkscape:label="Layer 1"
     inkscape:groupmode="layer"
     id="layer1"
     transform="translate(-143.75574,-235.65411)">
    <path
       style="fill:#cccccc;stroke:#000000;stroke-width:1px;stroke-linecap:butt;stroke-linejoin:miter;stroke-opacity:1"
       d="M 195.96959,275.89608 331.33003,84.977251 349.51278,99.119386 217.1828,289.02807 195.96959,275.89608"
       id="path3785"
       inkscape:path-effect="#path-effect3787"
       inkscape:original-d="M 195.96959,275.89608 331.33003,84.977251 349.51278,99.119386 217.1828,289.02807 z"
       inkscape:connector-curvature="0"
       transform="translate(116.98267,176.45098)" />
    <path
       style="fill:#4d4d4d;stroke:#000000;stroke-width:1px;stroke-linecap:butt;stroke-linejoin:miter;stroke-opacity:1"
       d="m 281.63753,428.1034 87.88327,60.60915 -6.06091,13.13199 c -5.57772,-2.79067 -12.00145,-3.8613 -18.18275,-3.03046 -7.38732,0.99294 -14.26445,4.63974 -19.84208,9.58427 -5.57763,4.94453 -9.9285,11.14362 -13.49295,17.68985 -7.731,14.19822 -11.93187,30.30156 -12.12183,46.46701 L 229.1096,673.57047 c -9.08788,2.93146 -18.78163,3.97008 -28.28427,3.03046 -19.34379,-1.91271 -37.8675,-12.50869 -48.48732,-28.78935 -4.89876,-7.51002 -8.14899,-16.28757 -8.08123,-25.25382 0.0563,-7.44325 2.39003,-14.73569 5.80475,-21.34967 3.41473,-6.61398 7.89815,-12.60694 12.378,-18.55135 l 52.52793,-69.70053 c 8.27754,-1.35112 16.41561,-3.55518 24.24366,-6.56598 8.95567,-3.44451 17.52092,-7.95629 25.25381,-13.63706 4.78769,-3.51716 9.27678,-7.50563 12.88566,-12.22457 3.60887,-4.71894 6.31966,-10.20335 7.3174,-16.05971 1.67587,-9.83675 -1.84864,-20.41025 -9.09138,-27.27412 l 6.06092,-9.09137"
       id="path3781"
       inkscape:path-effect="#path-effect3783"
       inkscape:original-d="m 281.63753,428.1034 87.88327,60.60915 -6.06091,13.13199 c 0,0 -6.06092,-6.06092 -18.18275,-3.03046 -12.12183,3.03046 -30.30458,19.1929 -33.33503,27.27412 -3.03046,8.08122 -12.12183,46.46701 -12.12183,46.46701 L 229.1096,673.57047 c 0,0 -19.1929,12.12183 -28.28427,3.03046 -9.09137,-9.09138 -48.48732,-28.78935 -48.48732,-28.78935 0,0 -12.12184,-6.06092 -8.08123,-25.25382 4.04061,-19.19289 18.18275,-39.90102 18.18275,-39.90102 l 52.52793,-69.70053 c 0,0 13.13198,-1.51522 24.24366,-6.56598 11.11168,-5.05077 17.17259,-5.55584 25.25381,-13.63706 8.08122,-8.08122 17.1726,-20.20306 20.20306,-28.28428 3.03046,-8.08122 -9.09138,-27.27412 -9.09138,-27.27412 z"
       inkscape:connector-curvature="0"
       sodipodi:nodetypes="cccssccscsccssscc" />
    <path
       style="fill:#b3b3b3;stroke:#000000;stroke-width:1px;stroke-linecap:butt;stroke-linejoin:miter;stroke-opacity:1"
       d="m 450.33301,262.41808 c 3.17798,-2.15872 6.21681,-4.52225 9.09137,-7.07107 4.46474,-3.9588 8.53229,-8.36531 12.12183,-13.13198 l 3.03046,-6.06092 4.04061,3.03046 -21.2132,29.29442 -7.07107,-6.06091"
       id="path3789"
       inkscape:path-effect="#path-effect3791"
       inkscape:original-d="m 450.33301,262.41808 c 0,0 4.04061,-3.03046 9.09137,-7.07107 5.05077,-4.04061 12.12183,-13.13198 12.12183,-13.13198 l 3.03046,-6.06092 4.04061,3.03046 -21.2132,29.29442 z"
       inkscape:connector-curvature="0" />
    <path
       style="fill:#b3b3b3;stroke:#000000;stroke-width:1px;stroke-linecap:butt;stroke-linejoin:miter;stroke-opacity:1"
       d="m 465.10553,273.39163 c 1.11412,-3.67673 2.4652,-7.28163 4.04209,-10.78492 2.4492,-5.44126 5.44411,-10.63673 8.9252,-15.48316 l 4.88313,-4.69825 -4.09646,-2.95452 -21.64598,28.9761 7.89202,4.94475"
       id="path3789-1"
       inkscape:path-effect="#path-effect3791-1"
       inkscape:original-d="m 465.10553,273.39163 c 0,0 1.68934,-4.75986 4.04209,-10.78492 2.35274,-6.02506 8.9252,-15.48316 8.9252,-15.48316 l 4.88313,-4.69825 -4.09646,-2.95452 -21.64598,28.9761 z"
       inkscape:connector-curvature="0" />
  </g>
</svg>
