<?xml version="1.0" encoding="UTF-8" standalone="no"?>
<!-- Created with Inkscape (http://www.inkscape.org/) -->

<svg
   xmlns:dc="http://purl.org/dc/elements/1.1/"
   xmlns:cc="http://creativecommons.org/ns#"
   xmlns:rdf="http://www.w3.org/1999/02/22-rdf-syntax-ns#"
   xmlns:svg="http://www.w3.org/2000/svg"
   xmlns="http://www.w3.org/2000/svg"
   xmlns:sodipodi="http://sodipodi.sourceforge.net/DTD/sodipodi-0.dtd"
   xmlns:inkscape="http://www.inkscape.org/namespaces/inkscape"
   width="436.74316"
   height="505.47852"
   id="svg2"
   version="1.1"
   inkscape:version="0.48.4 r9939"
   sodipodi:docname="screwdriver.svg">
  <defs
     id="defs4">
    <inkscape:path-effect
       effect="spiro"
       id="path-effect3843"
       is_visible="true" />
    <inkscape:path-effect
       effect="spiro"
       id="path-effect3839"
       is_visible="true" />
    <inkscape:path-effect
       effect="spiro"
       id="path-effect3835"
       is_visible="true" />
    <inkscape:path-effect
       effect="spiro"
       id="path-effect3791"
       is_visible="true" />
    <inkscape:path-effect
       effect="spiro"
       id="path-effect3787"
       is_visible="true" />
    <inkscape:path-effect
       effect="spiro"
       id="path-effect3783"
       is_visible="true" />
    <inkscape:path-effect
       effect="spiro"
       id="path-effect2987"
       is_visible="true" />
    <inkscape:path-effect
       effect="spiro"
       id="path-effect3791-1"
       is_visible="true" />
  </defs>
  <sodipodi:namedview
     id="base"
     pagecolor="#ffffff"
     bordercolor="#666666"
     borderopacity="1.0"
     inkscape:pageopacity="0.0"
     inkscape:pageshadow="2"
     inkscape:zoom="0.98994949"
     inkscape:cx="-38.865871"
     inkscape:cy="229.47272"
     inkscape:document-units="px"
     inkscape:current-layer="layer1"
     showgrid="false"
     fit-margin-top="0"
     fit-margin-left="0"
     fit-margin-right="0"
     fit-margin-bottom="0"
     inkscape:window-width="1920"
     inkscape:window-height="1151"
     inkscape:window-x="0"
     inkscape:window-y="25"
     inkscape:window-maximized="1" />
  <metadata
     id="metadata7">
    <rdf:RDF>
      <cc:Work
         rdf:about="">
        <dc:format>image/svg+xml</dc:format>
        <dc:type
           rdf:resource="http://purl.org/dc/dcmitype/StillImage" />
        <dc:title></dc:title>
      </cc:Work>
    </rdf:RDF>
  </metadata>
  <g
     inkscape:label="Layer 1"
     inkscape:groupmode="layer"
     id="layer1"
     transform="translate(-97.932516,-182.90201)">
    <path
       style="fill:#cccccc;stroke:#000000;stroke-width:1px;stroke-linecap:butt;stroke-linejoin:miter;stroke-opacity:1"
       d="m 350.32791,324.05768 31.31473,25.25382 -31.31473,39.39595 -28.28427,-22.22336 28.28427,-42.42641"
       id="path3837"
       inkscape:path-effect="#path-effect3839"
       inkscape:original-d="m 350.32791,324.05768 31.31473,25.25382 -31.31473,39.39595 -28.28427,-22.22336 z"
       inkscape:connector-curvature="0" />
    <path
       style="fill:#cccccc;stroke:#000000;stroke-width:1px;stroke-linecap:butt;stroke-linejoin:miter;stroke-opacity:1"
       d="m 233.15021,188.69725 c 23.99451,-6.29313 49.43806,-6.99021 73.74114,-2.02031 22.1782,4.53537 43.13496,13.64178 63.63961,23.23351 21.77939,10.18803 43.69438,21.29697 60.60915,38.3858 7.12841,7.20176 13.26501,15.3839 18.18275,24.24366 -1.60615,8.79686 -0.53686,18.06405 3.03046,26.26397 3.19332,7.34024 8.41995,13.85238 15.15228,18.18274 5.65882,3.63986 12.32565,5.69449 19.05168,5.87149 6.72602,0.177 13.4917,-1.52415 19.33412,-4.86134 l 28.28427,23.23351 -39.39595,56.56854 -28.28427,-18.18274 c -1.565,-9.15682 -5.41799,-17.91361 -11.11168,-25.25381 -6.91538,-8.91519 -16.54765,-15.69345 -27.27411,-19.1929 l -34.34519,25.25381 -57.5787,-45.45686 25.25382,-36.3655 c 4.71285,-4.74773 7.3381,-11.49839 7.07107,-18.18274 -0.30507,-7.63655 -4.23021,-14.79722 -9.55271,-20.28183 -5.3225,-5.48461 -11.97513,-9.48104 -18.73157,-13.05321 -22.61759,-11.95806 -47.36952,-19.86493 -72.73098,-23.2335 l -23.23351,-1.01016 c -1.91791,-0.0834 -3.85359,-0.18959 -5.70063,-0.71281 -1.84704,-0.52322 -3.59683,-1.47539 -4.90017,-2.88487 -1.30334,-1.40948 -2.12989,-3.26651 -2.23401,-5.18341 -0.10411,-1.91689 0.51905,-3.86587 1.72313,-5.36104"
       id="path3833"
       inkscape:path-effect="#path-effect3835"
       inkscape:original-d="m 233.15021,188.69725 c 28.28428,0 49.49748,-8.08122 73.74114,-2.02031 24.24366,6.06092 46.46702,12.12183 63.63961,23.23351 17.17259,11.11168 55.55839,33.33504 60.60915,38.3858 5.05077,5.05076 18.18275,24.24366 18.18275,24.24366 0,0 -3.03046,19.1929 3.03046,26.26397 6.06091,7.07106 5.05076,17.17259 15.15228,18.18274 10.10153,1.01015 38.3858,1.01015 38.3858,1.01015 l 28.28427,23.23351 -39.39595,56.56854 -28.28427,-18.18274 c 0,0 -2.0203,-15.15229 -11.11168,-25.25381 -9.09137,-10.10153 -27.27411,-19.1929 -27.27411,-19.1929 l -34.34519,25.25381 -57.5787,-45.45686 25.25382,-36.3655 c 0,0 8.08122,-8.08122 7.07107,-18.18274 -1.01016,-10.10153 -19.1929,-28.28427 -28.28428,-33.33504 -9.09137,-5.05076 -72.73098,-23.2335 -72.73098,-23.2335 l -23.23351,-1.01016 c -5.70889,-0.24821 -11.11168,-14.14213 -11.11168,-14.14213 z"
       inkscape:connector-curvature="0"
       sodipodi:nodetypes="cssscssccccsccccsscsc" />
    <path
       style="fill:#333333;stroke:#000000;stroke-width:1px;stroke-linecap:butt;stroke-linejoin:miter;stroke-opacity:1"
       d="m 197.9899,185.99251 43.43656,32.32488 c -3.74272,12.33863 -8.12795,24.48233 -13.13198,36.36549 -10.71537,25.44597 -24.24833,49.64709 -39.39595,72.73098 -16.34771,24.91274 -34.60115,48.57461 -54.54824,70.71068 -11.84525,11.18328 -22.37842,23.75513 -31.31473,37.37564 -6.785576,10.34241 -12.641082,21.26598 -18.182746,32.32489 -6.480661,12.93277 -12.545746,26.07378 -18.182745,39.39593 -5.821991,2.2196 -11.968643,3.58552 -18.182746,4.04062 -12.414127,0.90917 -25.076546,-1.89172 -35.949092,-7.95183 -10.8725459,-6.06011 -19.9144155,-15.35669 -25.670214,-26.39335 -3.803625,-5.15049 -5.739745,-11.65019 -5.37447,-18.04251 0.365275,-6.39231 3.029198,-12.62915 7.394775,-17.31283 4.9888083,-5.35232 11.83088107,-8.49011 18.1827458,-12.12183 7.7424472,-4.42679 14.9916552,-9.77227 21.2132042,-16.16244 13.030845,-13.38402 21.042176,-30.71903 29.294423,-47.47717 9.048684,-18.3755 18.665771,-36.46449 28.284271,-54.54824 10.372356,-19.50107 20.817454,-39.10779 34.345194,-56.56854 13.59514,-17.54774 30.10113,-32.65309 47.47716,-46.46701 9.808,-7.79735 19.91974,-15.21262 30.30458,-22.22336"
       id="path3841"
       inkscape:path-effect="#path-effect3843"
       inkscape:original-d="m 197.9899,185.99251 43.43656,32.32488 c 0,0 -8.08122,28.28427 -13.13198,36.36549 -5.05077,8.08122 -33.33504,65.65991 -39.39595,72.73098 -6.06092,7.07107 -54.54824,70.71068 -54.54824,70.71068 0,0 -28.28427,31.31473 -31.31473,37.37564 -3.03046,6.06092 -17.172594,27.27412 -18.182746,32.32489 -1.010153,5.05076 -18.182745,39.39593 -18.182745,39.39593 0,0 -8.439055,9.78506 -18.182746,4.04062 -11.577257,-6.82542 -61.619306,-34.34518 -61.619306,-34.34518 0,0 -3.030458,-28.28427 2.020305,-35.35534 5.0507628,-7.07107 13.1879074,-9.00006 18.1827458,-12.12183 8.0812212,-5.05077 15.1522882,-8.08122 21.2132042,-16.16244 6.060915,-8.08122 25.253813,-36.36549 29.294423,-47.47717 4.04061,-11.11168 21.213204,-46.46702 28.284271,-54.54824 7.071068,-8.08122 24.243664,-49.49748 34.345194,-56.56854 10.10152,-7.07107 35.35533,-37.37564 47.47716,-46.46701 7.22807,-5.42105 30.30458,-22.22336 30.30458,-22.22336 z"
       inkscape:connector-curvature="0"
       transform="translate(116.98267,176.45098)"
       sodipodi:nodetypes="ccsscsscscsssssssc" />
  </g>
</svg>
