<?xml version="1.0" encoding="UTF-8" standalone="no"?>
<!-- Created with Inkscape (http://www.inkscape.org/) -->

<svg
   xmlns:dc="http://purl.org/dc/elements/1.1/"
   xmlns:cc="http://creativecommons.org/ns#"
   xmlns:rdf="http://www.w3.org/1999/02/22-rdf-syntax-ns#"
   xmlns:svg="http://www.w3.org/2000/svg"
   xmlns="http://www.w3.org/2000/svg"
   xmlns:sodipodi="http://sodipodi.sourceforge.net/DTD/sodipodi-0.dtd"
   xmlns:inkscape="http://www.inkscape.org/namespaces/inkscape"
   width="440.69107"
   height="545.60681"
   id="svg2"
   version="1.1"
   inkscape:version="0.48.4 r9939"
   sodipodi:docname="New document 1">
  <defs
     id="defs4">
    <inkscape:path-effect
       effect="spiro"
       id="path-effect2987"
       is_visible="true" />
  </defs>
  <sodipodi:namedview
     id="base"
     pagecolor="#ffffff"
     bordercolor="#666666"
     borderopacity="1.0"
     inkscape:pageopacity="0.0"
     inkscape:pageshadow="2"
     inkscape:zoom="0.98994949"
     inkscape:cx="96.900952"
     inkscape:cy="345.89923"
     inkscape:document-units="px"
     inkscape:current-layer="layer1"
     showgrid="false"
     fit-margin-top="0"
     fit-margin-left="0"
     fit-margin-right="0"
     fit-margin-bottom="0"
     inkscape:window-width="1920"
     inkscape:window-height="1151"
     inkscape:window-x="0"
     inkscape:window-y="25"
     inkscape:window-maximized="1" />
  <metadata
     id="metadata7">
    <rdf:RDF>
      <cc:Work
         rdf:about="">
        <dc:format>image/svg+xml</dc:format>
        <dc:type
           rdf:resource="http://purl.org/dc/dcmitype/StillImage" />
        <dc:title></dc:title>
      </cc:Work>
    </rdf:RDF>
  </metadata>
  <g
     inkscape:label="Layer 1"
     inkscape:groupmode="layer"
     id="layer1"
     transform="translate(-116.98267,-176.45098)">
    <path
       style="fill:#cccccc;stroke:#000000;stroke-width:2;stroke-linecap:butt;stroke-linejoin:miter;stroke-miterlimit:4;stroke-opacity:1;stroke-dasharray:none"
       d="m 461.84375,177.46875 c -4.41646,0.20889 -15.36247,5.15546 -15.36247,5.15546 0,0 -58.58057,22.23524 -79.79378,42.43829 -21.2132,20.20305 -38.4375,36.92857 -43.4375,50.5 -7.07106,19.19289 -0.99921,32.31567 2.03125,44.4375 3.03046,12.12183 9.08439,38.38833 13.125,49.5 4.04061,11.11168 -3.92789,18.14986 -11.125,33.34375 C 318.18987,422.03665 198,590.71875 198,590.71875 c 0,0 -35.32791,-1.70847 -49.5,7.0625 -14.6135,9.04416 -25.72691,25.62991 -29.3125,42.4375 -3.07266,14.4032 0.0125,40.40705 6.07344,46.46796 6.06091,6.06092 20.39289,26.21815 36.3758,31.3125 17.67106,5.63244 44.63819,3.41382 60.58201,-6.06171 15.98579,-9.50048 26.28205,-30.29616 29.3125,-47.46875 C 253.49396,653.34675 248.5,637.1875 248.5,637.1875 L 386.875,443.25 c 0,0 4.38592,-11.68087 20.21875,-18.18671 18.35701,-7.54304 32.52655,-8.03561 45.45939,-5.04457 18.61133,4.30432 33.31647,-3.03124 52.50936,-11.11247 9.4943,-3.9976 34.36643,-36.38911 41.4375,-50.53125 7.07107,-14.14213 10.09375,-127.28125 10.09375,-127.28125 1.12609,-10.32119 -9.88741,-9.13614 -17.1875,1.03125 -4.32357,10.38448 -50.50238,74.73286 -50.50238,74.73286 l -36.35073,16.17339 c 0,0 -23.57762,-18.86199 -37.38674,-28.29299 l 10.11485,-40.39451 45.4375,-65.65625 c 0,0 6.08122,-7.06329 -2,-10.09375 -2.52538,-0.94702 -4.86752,-1.21995 -6.875,-1.125 z m -278.8125,440.1875 41.84375,23.40625 -9.5625,46.625 -47.78125,5.40625 -19.96875,-43.28125 z"
       id="path2985"
       inkscape:connector-curvature="0"
       sodipodi:nodetypes="scssssscssssssccsssscccccccsscccccc" />
    <rect
       style="opacity:0.5;fill:#4d4d4d;fill-opacity:1;fill-rule:nonzero;stroke:none"
       id="rect3760"
       width="38.385796"
       height="200.01021"
       x="512.62201"
       y="142.08746"
       transform="matrix(0.82397415,0.56662739,-0.56662739,0.82397415,0,0)" />
  </g>
</svg>
